{"title":"Major Lazer &amp; DJ Snake - Lean On [MV] 1080p [Sbyky]","uid":12427174,"size":85513097,"categoryP":"video","categoryS":"music_videos","magnet":"?xt=urn:btih:29fa87ba92f325bd38acf0b29a5b5582823a8f7e&amp;dn=Major+Lazer+%26amp%3B+DJ+Snake+-+Lean+On+%5BMV%5D+1080p+%5BSbyky%5D&amp;tr=udp%3A%2F%2Ftracker.openbittorrent.com%3A80&amp;tr=udp%3A%2F%2Fopen.demonii.com%3A1337&amp;tr=udp%3A%2F%2Ftracker.coppersurfer.tk%3A6969&amp;tr=udp%3A%2F%2Fexodus.desync.com%3A6969","seeders":15,"leechers":4,"uploader":"Sbyky","files":1,"time":1442399953,"description":"General\nComplete name                            : Major Lazer &amp; DJ Snake Ft. MÃ˜ - Lean On [Music Video] 1080p [Sbyky].mp4\nFormat                                   : MPEG-4\nFormat profile                           : Base Media\nCodec ID                                 : isom\nFile size                                : 81.6 MiB\nDuration                                 : 2mn 58s\nOverall bit rate mode                    : Variable\nOverall bit rate                         : 3 823 Kbps\nEncoded date                             : UTC 2015-03-25 20:11:50\nTagged date                              : UTC 2015-03-25 20:11:50\n\nVideo\nID                                       : 1\nFormat                                   : AVC\nFormat/Info                              : Advanced Video Codec\nFormat profile                           : &lt;a class=&quot;__cf_email__&quot; href=&quot;/cdn-cgi/l/email-protection&quot; data-cfemail=&quot;420a2b252a020e766c72&quot;&gt;[email&amp;#160;protected]&lt;/a&gt;&lt;script data-cfhash='f9e31' type=&quot;text/javascript&quot;&gt;\n/* &lt;![CDATA[ */!function(){try{var t=&quot;currentScript&quot;in document?document.currentScript:function(){for(var t=document.getElementsByTagName(&quot;script&quot;),e=t.length;e--;)if(t[e].getAttribute(&quot;data-cfhash&quot;))return t[e]}();if(t&amp;&amp;t.previousSibling){var e,r,n,i,c=t.previousSibling,a=c.getAttribute(&quot;data-cfemail&quot;);if(a){for(e=&quot;&quot;,r=parseInt(a.substr(0,2),16),n=2;a.length-n;n+=2)i=parseInt(a.substr(n,2),16)^r,e+=String.fromCharCode(i);e=document.createTextNode(e),c.parentNode.replaceChild(e,c)}t.parentNode.removeChild(t);}}catch(u){}}()/* ]]&gt; */&lt;/script&gt;\nFormat settings, CABAC                   : Yes\nFormat settings, ReFrames                : 3 frames\nCodec ID                                 : avc1\nCodec ID/Info                            : Advanced Video Coding\nDuration                                 : 2mn 58s\nBit rate                                 : 3 695 Kbps\nWidth                                    : 1 920 pixels\nHeight                                   : 1 080 pixels\nDisplay aspect ratio                     : 16:9\nFrame rate mode                          : Constant\nFrame rate                               : 25.000 fps\nColor space                              : YUV\nChroma subsampling                       : 4:2:0\nBit depth                                : 8 bits\nScan type                                : Progressive\nBits/(Pixel*Frame)                       : 0.071\nStream size                              : 78.8 MiB (97%)\nEncoded date                             : UTC 2015-03-25 20:11:50\nTagged date                              : UTC 2015-03-25 20:11:50\n\nAudio\nID                                       : 2\nFormat                                   : AAC\nFormat/Info                              : Advanced Audio Codec\nFormat profile                           : LC\nCodec ID                                 : 40\nDuration                                 : 2mn 58s\nBit rate mode                            : Variable\nBit rate                                 : 126 Kbps\nChannel(s)                               : 2 channels\nChannel positions                        : Front: L R\nSampling rate                            : 44.1 KHz\nCompression mode                         : Lossy\nStream size                              : 2.68 MiB (3%)\nEncoded date                             : UTC 2015-03-25 20:02:36\nTagged date                              : UTC 2015-03-25 20:02:36\n\nShared By Sbyky\n[IMG]http://yuq.me/users/18/139/0aq32UMZvX.gif[/IMG]\n[IMG]http://yuq.me/users/18/139/bQg62viaEG.gif[/IMG]","torrent":{"xt":"urn:btih:29fa87ba92f325bd38acf0b29a5b5582823a8f7e","amp;dn":"Major+Lazer+%26amp%3B+DJ+Snake+-+Lean+On+%5BMV%5D+1080p+%5BSbyky%5D","amp;tr":["udp%3A%2F%2Ftracker.openbittorrent.com%3A80","udp%3A%2F%2Fopen.demonii.com%3A1337","udp%3A%2F%2Ftracker.coppersurfer.tk%3A6969","udp%3A%2F%2Fexodus.desync.com%3A6969"],"infoHash":"29fa87ba92f325bd38acf0b29a5b5582823a8f7e","infoHashBuffer":{"type":"Buffer","data":[41,250,135,186,146,243,37,189,56,172,240,178,154,91,85,130,130,58,143,126]},"announce":[],"urlList":[]}}